<mxfile host="www.draw.io" modified="2019-12-21T05:49:18.004Z" agent="Mozilla/5.0 (Windows NT 10.0; Win64; x64) AppleWebKit/537.36 (KHTML, like Gecko) Chrome/79.0.3945.79 Safari/537.36" etag="ipHApuyvLSILB6ClX2x1" version="12.4.3" type="github" pages="1">
  <diagram id="rEoPbJ--mCGQhtU67ibJ" name="第 1 页">
    <mxGraphModel dx="748" dy="1253" grid="1" gridSize="10" guides="1" tooltips="1" connect="1" arrows="1" fold="1" page="1" pageScale="1" pageWidth="1169" pageHeight="827" math="0" shadow="0">
      <root>
        <mxCell id="0"/>
        <mxCell id="1" parent="0"/>
        <mxCell id="5_B36KdzPEvoYmhDLYBK-181" value="" style="group" parent="1" vertex="1" connectable="0" treatAsSingle="0">
          <mxGeometry x="40" y="90" width="1380" height="640" as="geometry"/>
        </mxCell>
        <mxCell id="5_B36KdzPEvoYmhDLYBK-7" value="&lt;font style=&quot;font-size: 20px&quot;&gt;调酒师&lt;/font&gt;" style="text;html=1;strokeColor=none;fillColor=none;align=center;verticalAlign=middle;whiteSpace=wrap;rounded=0;" parent="5_B36KdzPEvoYmhDLYBK-181" vertex="1">
          <mxGeometry x="350" y="182.5" width="40" height="137.5" as="geometry"/>
        </mxCell>
        <mxCell id="5_B36KdzPEvoYmhDLYBK-8" value="" style="shape=curlyBracket;whiteSpace=wrap;html=1;rounded=1;" parent="5_B36KdzPEvoYmhDLYBK-181" vertex="1">
          <mxGeometry x="410.7142857142857" y="135" width="24.285714285714285" height="250" as="geometry"/>
        </mxCell>
        <mxCell id="5_B36KdzPEvoYmhDLYBK-11" value="&lt;font style=&quot;font-size: 16px&quot;&gt;要求&lt;/font&gt;" style="rounded=1;whiteSpace=wrap;html=1;" parent="5_B36KdzPEvoYmhDLYBK-181" vertex="1">
          <mxGeometry x="447.1428571428571" y="115" width="85" height="50" as="geometry"/>
        </mxCell>
        <mxCell id="5_B36KdzPEvoYmhDLYBK-12" value="&lt;font style=&quot;font-size: 16px&quot;&gt;了解&lt;/font&gt;" style="rounded=1;whiteSpace=wrap;html=1;" parent="5_B36KdzPEvoYmhDLYBK-181" vertex="1">
          <mxGeometry x="447.1428571428571" y="355" width="85" height="50" as="geometry"/>
        </mxCell>
        <mxCell id="5_B36KdzPEvoYmhDLYBK-13" value="" style="shape=curlyBracket;whiteSpace=wrap;html=1;rounded=1;" parent="5_B36KdzPEvoYmhDLYBK-181" vertex="1">
          <mxGeometry x="556.43" y="85" width="24.29" height="125" as="geometry"/>
        </mxCell>
        <mxCell id="5_B36KdzPEvoYmhDLYBK-15" value="&lt;font style=&quot;font-size: 16px;&quot;&gt;形象好（拍下照片或者要求对方自带简历附上证件照）&lt;/font&gt;" style="text;html=1;strokeColor=none;fillColor=none;align=left;verticalAlign=middle;whiteSpace=wrap;rounded=0;fontSize=16;" parent="5_B36KdzPEvoYmhDLYBK-181" vertex="1">
          <mxGeometry x="592.8571428571429" y="82.5" width="437.1428571428571" height="20" as="geometry"/>
        </mxCell>
        <mxCell id="5_B36KdzPEvoYmhDLYBK-16" value="&lt;font style=&quot;font-size: 16px&quot;&gt;身高：男175+，女165+（特优者可适当放宽标准）&lt;/font&gt;" style="text;html=1;strokeColor=none;fillColor=none;align=left;verticalAlign=middle;whiteSpace=wrap;rounded=0;fontSize=16;" parent="5_B36KdzPEvoYmhDLYBK-181" vertex="1">
          <mxGeometry x="592.8571428571429" y="127.5" width="400.71428571428567" height="20" as="geometry"/>
        </mxCell>
        <mxCell id="5_B36KdzPEvoYmhDLYBK-17" value="&lt;font style=&quot;font-size: 16px;&quot;&gt;必须通过事业部调酒师的能力评估&lt;/font&gt;" style="text;html=1;strokeColor=none;fillColor=none;align=left;verticalAlign=middle;whiteSpace=wrap;rounded=0;fontSize=16;" parent="5_B36KdzPEvoYmhDLYBK-181" vertex="1">
          <mxGeometry x="592.8571428571429" y="195" width="279.2857142857143" height="20" as="geometry"/>
        </mxCell>
        <mxCell id="5_B36KdzPEvoYmhDLYBK-18" value="" style="shape=curlyBracket;whiteSpace=wrap;html=1;rounded=1;align=left;fontSize=16;" parent="5_B36KdzPEvoYmhDLYBK-181" vertex="1">
          <mxGeometry x="884.2857142857142" y="175" width="24.285714285714285" height="60" as="geometry"/>
        </mxCell>
        <mxCell id="5_B36KdzPEvoYmhDLYBK-22" value="&lt;font style=&quot;font-size: 16px;&quot;&gt;调酒技术&lt;/font&gt;" style="text;html=1;strokeColor=none;fillColor=none;align=center;verticalAlign=middle;whiteSpace=wrap;rounded=0;fontSize=16;" parent="5_B36KdzPEvoYmhDLYBK-181" vertex="1">
          <mxGeometry x="920.7142857142857" y="165" width="72.85714285714285" height="20" as="geometry"/>
        </mxCell>
        <mxCell id="5_B36KdzPEvoYmhDLYBK-23" value="&lt;font style=&quot;font-size: 16px;&quot;&gt;酒水文化&lt;/font&gt;" style="text;html=1;strokeColor=none;fillColor=none;align=center;verticalAlign=middle;whiteSpace=wrap;rounded=0;fontSize=16;" parent="5_B36KdzPEvoYmhDLYBK-181" vertex="1">
          <mxGeometry x="920.7142857142857" y="225" width="72.85714285714285" height="20" as="geometry"/>
        </mxCell>
        <mxCell id="5_B36KdzPEvoYmhDLYBK-27" value="" style="shape=curlyBracket;whiteSpace=wrap;html=1;rounded=1;" parent="5_B36KdzPEvoYmhDLYBK-181" vertex="1">
          <mxGeometry x="556.4285714285714" y="330" width="24.285714285714285" height="105" as="geometry"/>
        </mxCell>
        <mxCell id="5_B36KdzPEvoYmhDLYBK-28" value="&lt;font style=&quot;font-size: 16px;&quot;&gt;就业经历&lt;/font&gt;" style="text;html=1;strokeColor=none;fillColor=none;align=left;verticalAlign=middle;whiteSpace=wrap;rounded=0;fontSize=16;" parent="5_B36KdzPEvoYmhDLYBK-181" vertex="1">
          <mxGeometry x="592.8571428571429" y="322.5" width="437.1428571428571" height="20" as="geometry"/>
        </mxCell>
        <mxCell id="5_B36KdzPEvoYmhDLYBK-29" value="&lt;font style=&quot;font-size: 16px;&quot;&gt;离职原因&lt;/font&gt;" style="text;html=1;strokeColor=none;fillColor=none;align=left;verticalAlign=middle;whiteSpace=wrap;rounded=0;fontSize=16;" parent="5_B36KdzPEvoYmhDLYBK-181" vertex="1">
          <mxGeometry x="592.8571428571429" y="367.5" width="400.71428571428567" height="20" as="geometry"/>
        </mxCell>
        <mxCell id="5_B36KdzPEvoYmhDLYBK-30" value="&lt;font style=&quot;font-size: 16px;&quot;&gt;职业规划&lt;/font&gt;" style="text;html=1;strokeColor=none;fillColor=none;align=left;verticalAlign=middle;whiteSpace=wrap;rounded=0;fontSize=16;" parent="5_B36KdzPEvoYmhDLYBK-181" vertex="1">
          <mxGeometry x="592.8571428571429" y="417.5" width="279.2857142857143" height="20" as="geometry"/>
        </mxCell>
        <mxCell id="5_B36KdzPEvoYmhDLYBK-234" value="" style="group" parent="5_B36KdzPEvoYmhDLYBK-181" vertex="1" connectable="0" treatAsSingle="0">
          <mxGeometry x="1630" y="82.5" width="600" height="355" as="geometry"/>
        </mxCell>
        <mxCell id="5_B36KdzPEvoYmhDLYBK-180" value="" style="group" parent="5_B36KdzPEvoYmhDLYBK-234" vertex="1" connectable="0" treatAsSingle="0">
          <mxGeometry width="600" height="355" as="geometry"/>
        </mxCell>
        <mxCell id="5_B36KdzPEvoYmhDLYBK-36" value="&lt;span style=&quot;font-size: 20px&quot;&gt;服务员&lt;/span&gt;" style="text;html=1;strokeColor=none;fillColor=none;align=center;verticalAlign=middle;whiteSpace=wrap;rounded=0;" parent="5_B36KdzPEvoYmhDLYBK-180" vertex="1">
          <mxGeometry y="117.5" width="40" height="120" as="geometry"/>
        </mxCell>
        <mxCell id="5_B36KdzPEvoYmhDLYBK-37" value="" style="shape=curlyBracket;whiteSpace=wrap;html=1;rounded=1;" parent="5_B36KdzPEvoYmhDLYBK-180" vertex="1">
          <mxGeometry x="50" y="52.5" width="20" height="250" as="geometry"/>
        </mxCell>
        <mxCell id="5_B36KdzPEvoYmhDLYBK-38" value="&lt;font style=&quot;font-size: 16px&quot;&gt;要求&lt;/font&gt;" style="rounded=1;whiteSpace=wrap;html=1;" parent="5_B36KdzPEvoYmhDLYBK-180" vertex="1">
          <mxGeometry x="80" y="32.5" width="70" height="50" as="geometry"/>
        </mxCell>
        <mxCell id="5_B36KdzPEvoYmhDLYBK-39" value="&lt;font style=&quot;font-size: 16px&quot;&gt;了解&lt;/font&gt;" style="rounded=1;whiteSpace=wrap;html=1;" parent="5_B36KdzPEvoYmhDLYBK-180" vertex="1">
          <mxGeometry x="80" y="272.5" width="70" height="50" as="geometry"/>
        </mxCell>
        <mxCell id="5_B36KdzPEvoYmhDLYBK-40" value="" style="shape=curlyBracket;whiteSpace=wrap;html=1;rounded=1;" parent="5_B36KdzPEvoYmhDLYBK-180" vertex="1">
          <mxGeometry x="170" y="2.5" width="20" height="147.5" as="geometry"/>
        </mxCell>
        <mxCell id="5_B36KdzPEvoYmhDLYBK-41" value="&lt;font style=&quot;font-size: 16px;&quot;&gt;形象好（拍下照片或者要求对方自带简历附上证件照）&lt;/font&gt;" style="text;html=1;strokeColor=none;fillColor=none;align=left;verticalAlign=middle;whiteSpace=wrap;rounded=0;fontSize=16;" parent="5_B36KdzPEvoYmhDLYBK-180" vertex="1">
          <mxGeometry x="200" width="400" height="20" as="geometry"/>
        </mxCell>
        <mxCell id="5_B36KdzPEvoYmhDLYBK-42" value="&lt;font style=&quot;font-size: 16px;&quot;&gt;身高：男175+，女165+&lt;/font&gt;" style="text;html=1;strokeColor=none;fillColor=none;align=left;verticalAlign=middle;whiteSpace=wrap;rounded=0;fontSize=16;" parent="5_B36KdzPEvoYmhDLYBK-180" vertex="1">
          <mxGeometry x="200" y="45" width="330" height="20" as="geometry"/>
        </mxCell>
        <mxCell id="5_B36KdzPEvoYmhDLYBK-43" value="&lt;font style=&quot;font-size: 16px;&quot;&gt;性格好（通过面试初步印象）&lt;/font&gt;" style="text;html=1;strokeColor=none;fillColor=none;align=left;verticalAlign=middle;whiteSpace=wrap;rounded=0;fontSize=16;" parent="5_B36KdzPEvoYmhDLYBK-180" vertex="1">
          <mxGeometry x="200" y="95" width="230" height="20" as="geometry"/>
        </mxCell>
        <mxCell id="5_B36KdzPEvoYmhDLYBK-47" value="" style="shape=curlyBracket;whiteSpace=wrap;html=1;rounded=1;" parent="5_B36KdzPEvoYmhDLYBK-180" vertex="1">
          <mxGeometry x="170" y="247.5" width="20" height="105" as="geometry"/>
        </mxCell>
        <mxCell id="5_B36KdzPEvoYmhDLYBK-48" value="&lt;font style=&quot;font-size: 16px;&quot;&gt;就业经历&lt;/font&gt;" style="text;html=1;strokeColor=none;fillColor=none;align=left;verticalAlign=middle;whiteSpace=wrap;rounded=0;fontSize=16;" parent="5_B36KdzPEvoYmhDLYBK-180" vertex="1">
          <mxGeometry x="200" y="240" width="360" height="20" as="geometry"/>
        </mxCell>
        <mxCell id="5_B36KdzPEvoYmhDLYBK-49" value="&lt;font style=&quot;font-size: 16px;&quot;&gt;离职原因&lt;/font&gt;" style="text;html=1;strokeColor=none;fillColor=none;align=left;verticalAlign=middle;whiteSpace=wrap;rounded=0;fontSize=16;" parent="5_B36KdzPEvoYmhDLYBK-180" vertex="1">
          <mxGeometry x="200" y="285" width="330" height="20" as="geometry"/>
        </mxCell>
        <mxCell id="5_B36KdzPEvoYmhDLYBK-50" value="&lt;font style=&quot;font-size: 16px;&quot;&gt;职业规划（未来是否想做调酒师）&lt;/font&gt;" style="text;html=1;strokeColor=none;fillColor=none;align=left;verticalAlign=middle;whiteSpace=wrap;rounded=0;fontSize=16;" parent="5_B36KdzPEvoYmhDLYBK-180" vertex="1">
          <mxGeometry x="200" y="335" width="280" height="20" as="geometry"/>
        </mxCell>
        <mxCell id="5_B36KdzPEvoYmhDLYBK-51" value="&lt;font style=&quot;font-size: 16px;&quot;&gt;表达能力OK且没有过重地方口音&lt;/font&gt;" style="text;html=1;strokeColor=none;fillColor=none;align=left;verticalAlign=middle;whiteSpace=wrap;rounded=0;fontSize=16;" parent="5_B36KdzPEvoYmhDLYBK-180" vertex="1">
          <mxGeometry x="200" y="140" width="270" height="20" as="geometry"/>
        </mxCell>
        <mxCell id="F-7_qr-BvGtvpB1a77cc-1" value="&lt;h1&gt;招聘思路&lt;/h1&gt;&lt;p&gt;调酒师招聘时应把握358pub经营理念，宁缺毋滥，在身高形象达标的前提下，技术方面由由事业部调酒师评估。特优者可适当放宽标准（此处特优指的是获过业内大奖，可带来大量客源的应聘者）&lt;/p&gt;" style="text;html=1;strokeColor=none;fillColor=none;spacing=5;spacingTop=-20;whiteSpace=wrap;overflow=hidden;rounded=0;" parent="5_B36KdzPEvoYmhDLYBK-181" vertex="1">
          <mxGeometry x="30" y="77.5" width="190" height="132.5" as="geometry"/>
        </mxCell>
        <mxCell id="F-7_qr-BvGtvpB1a77cc-34" value="&lt;h1&gt;薪资待遇&lt;/h1&gt;&lt;p&gt;&lt;ul&gt;&lt;li&gt;条件优异：1W+&lt;/li&gt;&lt;li&gt;条件一般：7k+&lt;/li&gt;&lt;li&gt;条件很一般：5k+&lt;/li&gt;&lt;/ul&gt;&lt;/p&gt;" style="text;html=1;strokeColor=none;fillColor=none;spacing=5;spacingTop=-20;whiteSpace=wrap;overflow=hidden;rounded=0;" parent="5_B36KdzPEvoYmhDLYBK-181" vertex="1">
          <mxGeometry x="30" y="238.75" width="190" height="122.5" as="geometry"/>
        </mxCell>
        <mxCell id="F-7_qr-BvGtvpB1a77cc-70" value="&lt;h1&gt;上班时间&lt;/h1&gt;&lt;p&gt;&lt;/p&gt;&lt;ul&gt;&lt;li&gt;根据排班表上班，酒吧营业时间是上午10点至次日凌晨2点，员工天上班时间为8个小时&lt;/li&gt;&lt;li&gt;上六休一&lt;/li&gt;&lt;li&gt;法定假期不休，年底集中休假&lt;/li&gt;&lt;/ul&gt;&lt;p&gt;&lt;/p&gt;" style="text;html=1;strokeColor=none;fillColor=none;spacing=5;spacingTop=-20;whiteSpace=wrap;overflow=hidden;rounded=0;" parent="5_B36KdzPEvoYmhDLYBK-181" vertex="1">
          <mxGeometry x="30" y="361.25" width="230" height="158.75" as="geometry"/>
        </mxCell>
        <mxCell id="F-7_qr-BvGtvpB1a77cc-73" value="" style="shape=curlyBracket;whiteSpace=wrap;html=1;rounded=1;rotation=-180;" parent="5_B36KdzPEvoYmhDLYBK-181" vertex="1">
          <mxGeometry x="300" y="112.5" width="20" height="312.5" as="geometry"/>
        </mxCell>
        <mxCell id="5_B36KdzPEvoYmhDLYBK-52" value="&lt;span style=&quot;font-size: 20px&quot;&gt;行政人事专员&lt;/span&gt;" style="text;html=1;strokeColor=none;fillColor=none;align=center;verticalAlign=middle;whiteSpace=wrap;rounded=0;" parent="1" vertex="1">
          <mxGeometry x="1700.5" y="2807.5" width="40" height="120" as="geometry"/>
        </mxCell>
        <mxCell id="5_B36KdzPEvoYmhDLYBK-53" value="" style="shape=curlyBracket;whiteSpace=wrap;html=1;rounded=1;" parent="1" vertex="1">
          <mxGeometry x="1750.5" y="2742.5" width="20" height="250" as="geometry"/>
        </mxCell>
        <mxCell id="5_B36KdzPEvoYmhDLYBK-54" value="&lt;font style=&quot;font-size: 16px&quot;&gt;要求&lt;/font&gt;" style="rounded=1;whiteSpace=wrap;html=1;" parent="1" vertex="1">
          <mxGeometry x="1780.5" y="2722.5" width="70" height="50" as="geometry"/>
        </mxCell>
        <mxCell id="5_B36KdzPEvoYmhDLYBK-55" value="&lt;font style=&quot;font-size: 16px&quot;&gt;了解&lt;/font&gt;" style="rounded=1;whiteSpace=wrap;html=1;" parent="1" vertex="1">
          <mxGeometry x="1780.5" y="2962.5" width="70" height="50" as="geometry"/>
        </mxCell>
        <mxCell id="5_B36KdzPEvoYmhDLYBK-56" value="" style="shape=curlyBracket;whiteSpace=wrap;html=1;rounded=1;fontSize=16;" parent="1" vertex="1">
          <mxGeometry x="1870.5" y="2692.5" width="20" height="177.5" as="geometry"/>
        </mxCell>
        <mxCell id="5_B36KdzPEvoYmhDLYBK-57" value="&lt;font style=&quot;font-size: 16px;&quot;&gt;人力资源专业且有一年以上工作经验或&lt;br style=&quot;font-size: 16px;&quot;&gt;人力资源工作经验丰富&lt;br style=&quot;font-size: 16px;&quot;&gt;&lt;/font&gt;" style="text;html=1;strokeColor=none;fillColor=none;align=left;verticalAlign=middle;whiteSpace=wrap;rounded=0;fontSize=16;" parent="1" vertex="1">
          <mxGeometry x="1900.5" y="2690" width="360" height="20" as="geometry"/>
        </mxCell>
        <mxCell id="5_B36KdzPEvoYmhDLYBK-58" value="&lt;font style=&quot;font-size: 16px;&quot;&gt;提问相关问题：&lt;br style=&quot;font-size: 16px;&quot;&gt;1. 人力资源六大模块？&lt;br style=&quot;font-size: 16px;&quot;&gt;2.公司人事的主要内容？&lt;br style=&quot;font-size: 16px;&quot;&gt;3. 如何提高招聘效率？&lt;br style=&quot;font-size: 16px;&quot;&gt;......&lt;br style=&quot;font-size: 16px;&quot;&gt;&lt;br style=&quot;font-size: 16px;&quot;&gt;&lt;/font&gt;" style="text;html=1;strokeColor=none;fillColor=none;align=left;verticalAlign=middle;whiteSpace=wrap;rounded=0;fontSize=16;" parent="1" vertex="1">
          <mxGeometry x="1900.5" y="2735" width="330" height="125" as="geometry"/>
        </mxCell>
        <mxCell id="5_B36KdzPEvoYmhDLYBK-60" value="" style="shape=curlyBracket;whiteSpace=wrap;html=1;rounded=1;fontSize=16;" parent="1" vertex="1">
          <mxGeometry x="1870.5" y="2937.5" width="20" height="105" as="geometry"/>
        </mxCell>
        <mxCell id="5_B36KdzPEvoYmhDLYBK-61" value="&lt;font style=&quot;font-size: 16px;&quot;&gt;就业经历&lt;/font&gt;" style="text;html=1;strokeColor=none;fillColor=none;align=left;verticalAlign=middle;whiteSpace=wrap;rounded=0;fontSize=16;" parent="1" vertex="1">
          <mxGeometry x="1900.5" y="2930" width="360" height="20" as="geometry"/>
        </mxCell>
        <mxCell id="5_B36KdzPEvoYmhDLYBK-62" value="&lt;font style=&quot;font-size: 16px;&quot;&gt;离职原因&lt;/font&gt;" style="text;html=1;strokeColor=none;fillColor=none;align=left;verticalAlign=middle;whiteSpace=wrap;rounded=0;fontSize=16;" parent="1" vertex="1">
          <mxGeometry x="1900.5" y="2962.5" width="330" height="20" as="geometry"/>
        </mxCell>
        <mxCell id="5_B36KdzPEvoYmhDLYBK-63" value="&lt;font style=&quot;font-size: 16px;&quot;&gt;职业规划&lt;/font&gt;" style="text;html=1;strokeColor=none;fillColor=none;align=left;verticalAlign=middle;whiteSpace=wrap;rounded=0;fontSize=16;" parent="1" vertex="1">
          <mxGeometry x="1900.5" y="2992.5" width="230" height="20" as="geometry"/>
        </mxCell>
        <mxCell id="5_B36KdzPEvoYmhDLYBK-64" value="&lt;font style=&quot;font-size: 16px;&quot;&gt;接受“上六休一”和“集中休假”的上班模式&lt;/font&gt;" style="text;html=1;strokeColor=none;fillColor=none;align=left;verticalAlign=middle;whiteSpace=wrap;rounded=0;fontSize=16;" parent="1" vertex="1">
          <mxGeometry x="1900.5" y="2847.5" width="330" height="40" as="geometry"/>
        </mxCell>
        <mxCell id="5_B36KdzPEvoYmhDLYBK-65" value="&lt;font style=&quot;font-size: 16px;&quot;&gt;酒吧人员招聘和管理的思路&lt;/font&gt;" style="text;html=1;strokeColor=none;fillColor=none;align=left;verticalAlign=middle;whiteSpace=wrap;rounded=0;fontSize=16;" parent="1" vertex="1">
          <mxGeometry x="1900.5" y="3022.5" width="230" height="20" as="geometry"/>
        </mxCell>
        <mxCell id="UDFGTyTU-gH4lqWIlmIU-13" value="" style="group" parent="1" vertex="1" connectable="0">
          <mxGeometry x="450" y="2690" width="630" height="364.25" as="geometry"/>
        </mxCell>
        <mxCell id="5_B36KdzPEvoYmhDLYBK-154" value="&lt;span style=&quot;font-size: 20px&quot;&gt;财务专员&lt;/span&gt;" style="text;html=1;strokeColor=none;fillColor=none;align=center;verticalAlign=middle;whiteSpace=wrap;rounded=0;" parent="UDFGTyTU-gH4lqWIlmIU-13" vertex="1">
          <mxGeometry y="141.75" width="40" height="120" as="geometry"/>
        </mxCell>
        <mxCell id="5_B36KdzPEvoYmhDLYBK-155" value="" style="shape=curlyBracket;whiteSpace=wrap;html=1;rounded=1;" parent="UDFGTyTU-gH4lqWIlmIU-13" vertex="1">
          <mxGeometry x="50" y="76.75" width="20" height="250" as="geometry"/>
        </mxCell>
        <mxCell id="5_B36KdzPEvoYmhDLYBK-156" value="&lt;font style=&quot;font-size: 16px&quot;&gt;要求&lt;/font&gt;" style="rounded=1;whiteSpace=wrap;html=1;" parent="UDFGTyTU-gH4lqWIlmIU-13" vertex="1">
          <mxGeometry x="80" y="56.75" width="70" height="50" as="geometry"/>
        </mxCell>
        <mxCell id="5_B36KdzPEvoYmhDLYBK-157" value="&lt;font style=&quot;font-size: 16px&quot;&gt;了解&lt;/font&gt;" style="rounded=1;whiteSpace=wrap;html=1;" parent="UDFGTyTU-gH4lqWIlmIU-13" vertex="1">
          <mxGeometry x="80" y="296.75" width="70" height="50" as="geometry"/>
        </mxCell>
        <mxCell id="5_B36KdzPEvoYmhDLYBK-158" value="" style="shape=curlyBracket;whiteSpace=wrap;html=1;rounded=1;" parent="UDFGTyTU-gH4lqWIlmIU-13" vertex="1">
          <mxGeometry x="168" y="16.75" width="18.5" height="130" as="geometry"/>
        </mxCell>
        <mxCell id="5_B36KdzPEvoYmhDLYBK-161" value="" style="shape=curlyBracket;whiteSpace=wrap;html=1;rounded=1;" parent="UDFGTyTU-gH4lqWIlmIU-13" vertex="1">
          <mxGeometry x="170" y="284.25" width="20" height="70" as="geometry"/>
        </mxCell>
        <mxCell id="5_B36KdzPEvoYmhDLYBK-162" value="&lt;font style=&quot;font-size: 16px;&quot;&gt;离职原因&lt;/font&gt;" style="text;html=1;strokeColor=none;fillColor=none;align=left;verticalAlign=middle;whiteSpace=wrap;rounded=0;fontSize=16;" parent="UDFGTyTU-gH4lqWIlmIU-13" vertex="1">
          <mxGeometry x="203.5" y="344.25" width="330" height="20" as="geometry"/>
        </mxCell>
        <mxCell id="5_B36KdzPEvoYmhDLYBK-167" value="&lt;font style=&quot;font-size: 16px;&quot;&gt;就业经历&lt;/font&gt;" style="text;html=1;strokeColor=none;fillColor=none;align=left;verticalAlign=middle;whiteSpace=wrap;rounded=0;fontSize=16;" parent="UDFGTyTU-gH4lqWIlmIU-13" vertex="1">
          <mxGeometry x="201.5" y="303" width="360" height="20" as="geometry"/>
        </mxCell>
        <mxCell id="5_B36KdzPEvoYmhDLYBK-176" value="&lt;font style=&quot;font-size: 16px;&quot;&gt;家庭住址&lt;/font&gt;" style="text;html=1;strokeColor=none;fillColor=none;align=left;verticalAlign=middle;whiteSpace=wrap;rounded=0;fontSize=16;" parent="UDFGTyTU-gH4lqWIlmIU-13" vertex="1">
          <mxGeometry x="203.5" y="268" width="360" height="20" as="geometry"/>
        </mxCell>
        <mxCell id="5_B36KdzPEvoYmhDLYBK-201" value="&lt;font style=&quot;font-size: 16px;&quot;&gt;财务会计类专业且有一年以上工作经验或&lt;br style=&quot;font-size: 16px;&quot;&gt;财务会计类工作经验丰富&lt;/font&gt;" style="text;html=1;fontSize=16;" parent="UDFGTyTU-gH4lqWIlmIU-13" vertex="1">
          <mxGeometry x="201.5" width="230" height="40" as="geometry"/>
        </mxCell>
        <mxCell id="5_B36KdzPEvoYmhDLYBK-202" value="&lt;font style=&quot;font-size: 16px;&quot;&gt;接受“上六休一”和“集中休假”的上班模式&lt;/font&gt;" style="text;html=1;strokeColor=none;fillColor=none;align=left;verticalAlign=middle;whiteSpace=wrap;rounded=0;fontSize=16;" parent="UDFGTyTU-gH4lqWIlmIU-13" vertex="1">
          <mxGeometry x="201.5" y="53.75" width="338.5" height="20" as="geometry"/>
        </mxCell>
        <mxCell id="5_B36KdzPEvoYmhDLYBK-203" value="&lt;font style=&quot;font-size: 16px;&quot;&gt;工作内容要求：&lt;br style=&quot;font-size: 16px;&quot;&gt;&lt;ul style=&quot;font-size: 16px;&quot;&gt;&lt;li style=&quot;font-size: 16px;&quot;&gt;配合会计处理财务部门日常工作；&lt;br style=&quot;font-size: 16px;&quot;&gt;&lt;/li&gt;&lt;li style=&quot;font-size: 16px;&quot;&gt;办理现金、银行日常收支，严格按照规定收支款项；&lt;br style=&quot;font-size: 16px;&quot;&gt;&lt;/li&gt;&lt;li style=&quot;font-size: 16px;&quot;&gt;穿日常收支明细台账；&lt;br style=&quot;font-size: 16px;&quot;&gt;&lt;/li&gt;&lt;li style=&quot;font-size: 16px;&quot;&gt;库存商品采购及管理明细台账；&lt;br style=&quot;font-size: 16px;&quot;&gt;&lt;/li&gt;&lt;/ul&gt;&lt;br style=&quot;font-size: 16px;&quot;&gt;&lt;/font&gt;" style="text;html=1;strokeColor=none;fillColor=none;align=left;verticalAlign=middle;whiteSpace=wrap;rounded=0;fontSize=16;" parent="UDFGTyTU-gH4lqWIlmIU-13" vertex="1">
          <mxGeometry x="201.5" y="86.75" width="428.5" height="163.25" as="geometry"/>
        </mxCell>
        <mxCell id="Fl71wRBjlF6iR6LxpcYb-3" value="&lt;h1&gt;招聘思路&lt;/h1&gt;&lt;p&gt;服务员招聘时应把握358pub经营理念，宁缺毋滥，在身高形象必须达标，同时注意言谈举止以及可塑性。&lt;/p&gt;" style="text;html=1;strokeColor=none;fillColor=none;spacing=5;spacingTop=-20;whiteSpace=wrap;overflow=hidden;rounded=0;" vertex="1" parent="1">
          <mxGeometry x="1367.53" y="167.5" width="190" height="120" as="geometry"/>
        </mxCell>
        <mxCell id="Fl71wRBjlF6iR6LxpcYb-4" value="&lt;h1&gt;薪资待遇&lt;/h1&gt;&lt;p&gt;&lt;ul&gt;&lt;li&gt;条件优异：8k+&lt;/li&gt;&lt;li&gt;条件一般：6k+&lt;/li&gt;&lt;li&gt;条件很一般：4k+&lt;/li&gt;&lt;/ul&gt;&lt;/p&gt;" style="text;html=1;strokeColor=none;fillColor=none;spacing=5;spacingTop=-20;whiteSpace=wrap;overflow=hidden;rounded=0;" vertex="1" parent="1">
          <mxGeometry x="1367.53" y="297.5" width="190" height="122.5" as="geometry"/>
        </mxCell>
        <mxCell id="Fl71wRBjlF6iR6LxpcYb-5" value="&lt;h1&gt;上班时间&lt;/h1&gt;&lt;p&gt;&lt;/p&gt;&lt;ul&gt;&lt;li&gt;根据排班表上班，酒吧营业时间是上午10点至次日凌晨2点，员工天上班时间为8个小时&lt;/li&gt;&lt;li&gt;上六休一&lt;/li&gt;&lt;li&gt;法定假期不休，年底集中休假&lt;/li&gt;&lt;/ul&gt;&lt;p&gt;&lt;/p&gt;" style="text;html=1;strokeColor=none;fillColor=none;spacing=5;spacingTop=-20;whiteSpace=wrap;overflow=hidden;rounded=0;" vertex="1" parent="1">
          <mxGeometry x="1367.53" y="451.25" width="230" height="150" as="geometry"/>
        </mxCell>
        <mxCell id="Fl71wRBjlF6iR6LxpcYb-6" value="" style="shape=curlyBracket;whiteSpace=wrap;html=1;rounded=1;rotation=-180;" vertex="1" parent="1">
          <mxGeometry x="1637.53" y="202.5" width="20" height="312.5" as="geometry"/>
        </mxCell>
        <mxCell id="F-7_qr-BvGtvpB1a77cc-35" value="&lt;h1&gt;薪资待遇&lt;/h1&gt;&lt;p&gt;&lt;ul&gt;&lt;li&gt;业务岗的薪资待遇根据其所在具体级别而定，358pub的薪酬体系是以“多劳多得”的原则制定，招聘时可根据对方的价值高低说出我们大概的薪酬，同时要着重强调我们“多劳多得”的原则。&lt;/li&gt;&lt;li&gt;外地户口且南宁没有房产的员工可享受一年的免费宿舍，且入职后的第12-18月还有每月300的房贴。&lt;/li&gt;&lt;li&gt;享受五险一金&lt;/li&gt;&lt;li&gt;提供员工餐&lt;/li&gt;&lt;li&gt;宿舍卫生阿姨帮忙打扫等&lt;/li&gt;&lt;/ul&gt;&lt;/p&gt;&lt;p&gt;&lt;br&gt;&lt;/p&gt;" style="text;html=1;strokeColor=none;fillColor=none;spacing=5;spacingTop=-20;whiteSpace=wrap;overflow=hidden;rounded=0;" parent="1" vertex="1">
          <mxGeometry x="1540" y="-530" width="240" height="202.5" as="geometry"/>
        </mxCell>
        <mxCell id="Fl71wRBjlF6iR6LxpcYb-51" value="" style="group" vertex="1" connectable="0" parent="1">
          <mxGeometry x="120" y="930" width="940" height="540" as="geometry"/>
        </mxCell>
        <mxCell id="5_B36KdzPEvoYmhDLYBK-186" value="" style="group" parent="Fl71wRBjlF6iR6LxpcYb-51" vertex="1" connectable="0" treatAsSingle="0">
          <mxGeometry x="340" y="80" width="600" height="355" as="geometry"/>
        </mxCell>
        <mxCell id="5_B36KdzPEvoYmhDLYBK-187" value="&lt;span style=&quot;font-size: 20px&quot;&gt;全职歌手&lt;/span&gt;" style="text;html=1;strokeColor=none;fillColor=none;align=center;verticalAlign=middle;whiteSpace=wrap;rounded=0;" parent="5_B36KdzPEvoYmhDLYBK-186" vertex="1">
          <mxGeometry y="117.5" width="40" height="120" as="geometry"/>
        </mxCell>
        <mxCell id="5_B36KdzPEvoYmhDLYBK-188" value="" style="shape=curlyBracket;whiteSpace=wrap;html=1;rounded=1;" parent="5_B36KdzPEvoYmhDLYBK-186" vertex="1">
          <mxGeometry x="50" y="52.5" width="20" height="250" as="geometry"/>
        </mxCell>
        <mxCell id="5_B36KdzPEvoYmhDLYBK-189" value="&lt;font style=&quot;font-size: 16px&quot;&gt;要求&lt;/font&gt;" style="rounded=1;whiteSpace=wrap;html=1;" parent="5_B36KdzPEvoYmhDLYBK-186" vertex="1">
          <mxGeometry x="80" y="32.5" width="70" height="50" as="geometry"/>
        </mxCell>
        <mxCell id="5_B36KdzPEvoYmhDLYBK-190" value="&lt;font style=&quot;font-size: 16px&quot;&gt;了解&lt;/font&gt;" style="rounded=1;whiteSpace=wrap;html=1;" parent="5_B36KdzPEvoYmhDLYBK-186" vertex="1">
          <mxGeometry x="80" y="272.5" width="70" height="50" as="geometry"/>
        </mxCell>
        <mxCell id="5_B36KdzPEvoYmhDLYBK-191" value="" style="shape=curlyBracket;whiteSpace=wrap;html=1;rounded=1;" parent="5_B36KdzPEvoYmhDLYBK-186" vertex="1">
          <mxGeometry x="170" y="2.5" width="20" height="177.5" as="geometry"/>
        </mxCell>
        <mxCell id="5_B36KdzPEvoYmhDLYBK-192" value="&lt;font style=&quot;font-size: 16px;&quot;&gt;形象好（拍下照片或者要求对方自带简历附上证件照）&lt;/font&gt;" style="text;html=1;strokeColor=none;fillColor=none;align=left;verticalAlign=middle;whiteSpace=wrap;rounded=0;fontSize=16;" parent="5_B36KdzPEvoYmhDLYBK-186" vertex="1">
          <mxGeometry x="200" width="400" height="20" as="geometry"/>
        </mxCell>
        <mxCell id="5_B36KdzPEvoYmhDLYBK-193" value="&lt;font style=&quot;font-size: 16px;&quot;&gt;身高：男175+，女165+&lt;/font&gt;" style="text;html=1;strokeColor=none;fillColor=none;align=left;verticalAlign=middle;whiteSpace=wrap;rounded=0;fontSize=16;" parent="5_B36KdzPEvoYmhDLYBK-186" vertex="1">
          <mxGeometry x="200" y="45" width="330" height="20" as="geometry"/>
        </mxCell>
        <mxCell id="5_B36KdzPEvoYmhDLYBK-194" value="&lt;span style=&quot;font-size: 16px&quot;&gt;声音条件好，能够吉他弹唱&lt;/span&gt;" style="text;html=1;strokeColor=none;fillColor=none;align=left;verticalAlign=middle;whiteSpace=wrap;rounded=0;fontSize=16;" parent="5_B36KdzPEvoYmhDLYBK-186" vertex="1">
          <mxGeometry x="200" y="86.25" width="230" height="20" as="geometry"/>
        </mxCell>
        <mxCell id="5_B36KdzPEvoYmhDLYBK-195" value="" style="shape=curlyBracket;whiteSpace=wrap;html=1;rounded=1;" parent="5_B36KdzPEvoYmhDLYBK-186" vertex="1">
          <mxGeometry x="170" y="247.5" width="20" height="105" as="geometry"/>
        </mxCell>
        <mxCell id="5_B36KdzPEvoYmhDLYBK-196" value="&lt;font style=&quot;font-size: 16px;&quot;&gt;就业经历&lt;/font&gt;" style="text;html=1;strokeColor=none;fillColor=none;align=left;verticalAlign=middle;whiteSpace=wrap;rounded=0;fontSize=16;" parent="5_B36KdzPEvoYmhDLYBK-186" vertex="1">
          <mxGeometry x="200" y="240" width="360" height="20" as="geometry"/>
        </mxCell>
        <mxCell id="5_B36KdzPEvoYmhDLYBK-197" value="&lt;font style=&quot;font-size: 16px;&quot;&gt;离职原因&lt;/font&gt;" style="text;html=1;strokeColor=none;fillColor=none;align=left;verticalAlign=middle;whiteSpace=wrap;rounded=0;fontSize=16;" parent="5_B36KdzPEvoYmhDLYBK-186" vertex="1">
          <mxGeometry x="200" y="285" width="330" height="20" as="geometry"/>
        </mxCell>
        <mxCell id="5_B36KdzPEvoYmhDLYBK-198" value="&lt;font style=&quot;font-size: 16px;&quot;&gt;职业规划&lt;/font&gt;" style="text;html=1;strokeColor=none;fillColor=none;align=left;verticalAlign=middle;whiteSpace=wrap;rounded=0;fontSize=16;" parent="5_B36KdzPEvoYmhDLYBK-186" vertex="1">
          <mxGeometry x="200" y="335" width="230" height="20" as="geometry"/>
        </mxCell>
        <mxCell id="5_B36KdzPEvoYmhDLYBK-199" value="&lt;font style=&quot;font-size: 16px;&quot;&gt;表达能力OK且没有过重地方口音&lt;/font&gt;" style="text;html=1;strokeColor=none;fillColor=none;align=left;verticalAlign=middle;whiteSpace=wrap;rounded=0;fontSize=16;" parent="5_B36KdzPEvoYmhDLYBK-186" vertex="1">
          <mxGeometry x="200" y="130" width="280" height="20" as="geometry"/>
        </mxCell>
        <mxCell id="5_B36KdzPEvoYmhDLYBK-200" value="&lt;font style=&quot;font-size: 16px;&quot;&gt;接受服务员工作&lt;/font&gt;" style="text;html=1;strokeColor=none;fillColor=none;align=left;verticalAlign=middle;whiteSpace=wrap;rounded=0;fontSize=16;" parent="5_B36KdzPEvoYmhDLYBK-186" vertex="1">
          <mxGeometry x="200" y="167" width="230" height="20" as="geometry"/>
        </mxCell>
        <mxCell id="Fl71wRBjlF6iR6LxpcYb-7" value="&lt;h1&gt;招聘思路&lt;/h1&gt;&lt;p&gt;全职歌手的招聘可分为两个方向，分别是会唱歌的服务员和接受服务员工作的弹唱歌手，在此基础上身高形象须达标，面试时注意其表达能力，弹唱演艺方面由专业人员评估，除此之外一律根据服务员标准筛选。&lt;/p&gt;" style="text;html=1;strokeColor=none;fillColor=none;spacing=5;spacingTop=-20;whiteSpace=wrap;overflow=hidden;rounded=0;" vertex="1" parent="Fl71wRBjlF6iR6LxpcYb-51">
          <mxGeometry x="10" width="190" height="150" as="geometry"/>
        </mxCell>
        <mxCell id="Fl71wRBjlF6iR6LxpcYb-8" value="&lt;h1&gt;薪资待遇&lt;/h1&gt;&lt;p&gt;&lt;/p&gt;&lt;ul&gt;&lt;li&gt;条件优异：8k+&lt;/li&gt;&lt;li&gt;条件一般：6k+&lt;/li&gt;&lt;li&gt;条件很一般：4k+&lt;/li&gt;&lt;/ul&gt;&lt;p&gt;&lt;/p&gt;" style="text;html=1;strokeColor=none;fillColor=none;spacing=5;spacingTop=-20;whiteSpace=wrap;overflow=hidden;rounded=0;" vertex="1" parent="Fl71wRBjlF6iR6LxpcYb-51">
          <mxGeometry x="10" y="161.25000000000023" width="190" height="122.5" as="geometry"/>
        </mxCell>
        <mxCell id="Fl71wRBjlF6iR6LxpcYb-9" value="&lt;h1&gt;上班时间&lt;/h1&gt;&lt;p&gt;&lt;/p&gt;&lt;ul&gt;&lt;li&gt;根据排班表上班，酒吧营业时间是上午10点至次日凌晨2点，员工天上班时间为8个小时&lt;/li&gt;&lt;li&gt;上六休一&lt;/li&gt;&lt;li&gt;法定假期不休，年底集中休假&lt;/li&gt;&lt;/ul&gt;&lt;p&gt;&lt;/p&gt;" style="text;html=1;strokeColor=none;fillColor=none;spacing=5;spacingTop=-20;whiteSpace=wrap;overflow=hidden;rounded=0;" vertex="1" parent="Fl71wRBjlF6iR6LxpcYb-51">
          <mxGeometry x="10" y="283.7500000000002" width="230" height="158.75" as="geometry"/>
        </mxCell>
        <mxCell id="Fl71wRBjlF6iR6LxpcYb-10" value="" style="shape=curlyBracket;whiteSpace=wrap;html=1;rounded=1;rotation=-180;" vertex="1" parent="Fl71wRBjlF6iR6LxpcYb-51">
          <mxGeometry x="280" y="35" width="20" height="442.5" as="geometry"/>
        </mxCell>
        <mxCell id="Fl71wRBjlF6iR6LxpcYb-49" value="&lt;h1&gt;工作内容&lt;/h1&gt;日常按照排班表正常上班，非表演时间工作与服务员一致，表演时间登台演艺。&lt;br&gt;&lt;p&gt;&lt;/p&gt;" style="text;html=1;strokeColor=none;fillColor=none;spacing=5;spacingTop=-20;whiteSpace=wrap;overflow=hidden;rounded=0;" vertex="1" parent="Fl71wRBjlF6iR6LxpcYb-51">
          <mxGeometry y="430" width="230" height="110" as="geometry"/>
        </mxCell>
        <mxCell id="Fl71wRBjlF6iR6LxpcYb-52" value="" style="group" vertex="1" connectable="0" parent="1">
          <mxGeometry x="1230" y="991.25" width="1106.3300000000004" height="548.75" as="geometry"/>
        </mxCell>
        <mxCell id="Fl71wRBjlF6iR6LxpcYb-43" value="&lt;h1&gt;招聘思路&lt;/h1&gt;&lt;p&gt;安保的招聘对身高形象方面的要求与服务员相似，可稍微放宽标准，专业度上具有相关资格证或有2年以上工作经验优先。面试时注意言谈举止，身高形象满足标准时可考虑转服务员岗。&lt;/p&gt;" style="text;html=1;spacing=5;spacingTop=-20;whiteSpace=wrap;overflow=hidden;rounded=0;" vertex="1" parent="Fl71wRBjlF6iR6LxpcYb-52">
          <mxGeometry width="190" height="150" as="geometry"/>
        </mxCell>
        <mxCell id="Fl71wRBjlF6iR6LxpcYb-44" value="&lt;h1&gt;薪资待遇&lt;/h1&gt;&lt;div&gt;&lt;ul&gt;&lt;li&gt;4.5~5.5k&lt;/li&gt;&lt;/ul&gt;&lt;/div&gt;&lt;p&gt;&lt;/p&gt;" style="text;html=1;strokeColor=none;fillColor=none;spacing=5;spacingTop=-20;whiteSpace=wrap;overflow=hidden;rounded=0;" vertex="1" parent="Fl71wRBjlF6iR6LxpcYb-52">
          <mxGeometry y="161.25000000000023" width="190" height="122.5" as="geometry"/>
        </mxCell>
        <mxCell id="Fl71wRBjlF6iR6LxpcYb-45" value="&lt;h1&gt;上班时间&lt;/h1&gt;&lt;p&gt;&lt;/p&gt;&lt;ul&gt;&lt;li&gt;根据排班表上班，酒吧营业时间是上午10点至次日凌晨2点，员工天上班时间为8个小时&lt;/li&gt;&lt;li&gt;上六休一&lt;/li&gt;&lt;li&gt;法定假期不休，年底集中休假&lt;/li&gt;&lt;/ul&gt;&lt;p&gt;&lt;/p&gt;" style="text;html=1;strokeColor=none;fillColor=none;spacing=5;spacingTop=-20;whiteSpace=wrap;overflow=hidden;rounded=0;" vertex="1" parent="Fl71wRBjlF6iR6LxpcYb-52">
          <mxGeometry y="283.7500000000002" width="230" height="158.75" as="geometry"/>
        </mxCell>
        <mxCell id="Fl71wRBjlF6iR6LxpcYb-46" value="" style="shape=curlyBracket;whiteSpace=wrap;html=1;rounded=1;rotation=-180;" vertex="1" parent="Fl71wRBjlF6iR6LxpcYb-52">
          <mxGeometry x="270" y="35" width="20" height="443.75" as="geometry"/>
        </mxCell>
        <mxCell id="5_B36KdzPEvoYmhDLYBK-79" value="&lt;b&gt;&lt;font style=&quot;font-size: 30px&quot;&gt;安保&lt;/font&gt;&lt;/b&gt;" style="text;html=1;strokeColor=none;fillColor=none;align=center;verticalAlign=middle;whiteSpace=wrap;rounded=0;" parent="Fl71wRBjlF6iR6LxpcYb-52" vertex="1">
          <mxGeometry x="310" y="188.07999999999993" width="40" height="120" as="geometry"/>
        </mxCell>
        <mxCell id="5_B36KdzPEvoYmhDLYBK-80" value="" style="shape=curlyBracket;whiteSpace=wrap;html=1;rounded=1;" parent="Fl71wRBjlF6iR6LxpcYb-52" vertex="1">
          <mxGeometry x="356.3299999999999" y="128.75" width="20" height="250" as="geometry"/>
        </mxCell>
        <mxCell id="5_B36KdzPEvoYmhDLYBK-81" value="&lt;font style=&quot;font-size: 16px&quot;&gt;要求&lt;/font&gt;" style="rounded=1;whiteSpace=wrap;html=1;" parent="Fl71wRBjlF6iR6LxpcYb-52" vertex="1">
          <mxGeometry x="386.3299999999999" y="108.75" width="70" height="50" as="geometry"/>
        </mxCell>
        <mxCell id="5_B36KdzPEvoYmhDLYBK-82" value="&lt;font style=&quot;font-size: 16px&quot;&gt;了解&lt;/font&gt;" style="rounded=1;whiteSpace=wrap;html=1;" parent="Fl71wRBjlF6iR6LxpcYb-52" vertex="1">
          <mxGeometry x="386.3299999999999" y="348.75" width="70" height="50" as="geometry"/>
        </mxCell>
        <mxCell id="5_B36KdzPEvoYmhDLYBK-83" value="" style="shape=curlyBracket;whiteSpace=wrap;html=1;rounded=1;" parent="Fl71wRBjlF6iR6LxpcYb-52" vertex="1">
          <mxGeometry x="476.3299999999999" y="41.25" width="20" height="187.5" as="geometry"/>
        </mxCell>
        <mxCell id="5_B36KdzPEvoYmhDLYBK-84" value="&lt;font style=&quot;font-size: 16px;&quot;&gt;形象好（拍下照片或者要求对方自带简历附上证件照）&lt;/font&gt;" style="text;html=1;strokeColor=none;fillColor=none;align=left;verticalAlign=middle;whiteSpace=wrap;rounded=0;fontSize=16;" parent="Fl71wRBjlF6iR6LxpcYb-52" vertex="1">
          <mxGeometry x="506.3299999999999" y="38.75" width="400" height="20" as="geometry"/>
        </mxCell>
        <mxCell id="5_B36KdzPEvoYmhDLYBK-85" value="&lt;font style=&quot;font-size: 16px;&quot;&gt;身高：男175+，女165+&lt;/font&gt;" style="text;html=1;strokeColor=none;fillColor=none;align=left;verticalAlign=middle;whiteSpace=wrap;rounded=0;fontSize=16;" parent="Fl71wRBjlF6iR6LxpcYb-52" vertex="1">
          <mxGeometry x="506.3299999999999" y="83.75" width="330" height="20" as="geometry"/>
        </mxCell>
        <mxCell id="5_B36KdzPEvoYmhDLYBK-86" value="&lt;font style=&quot;font-size: 16px&quot;&gt;安保能力（具有相关工作经验及资格证书）&lt;/font&gt;" style="text;html=1;strokeColor=none;fillColor=none;align=left;verticalAlign=middle;whiteSpace=wrap;rounded=0;fontSize=16;" parent="Fl71wRBjlF6iR6LxpcYb-52" vertex="1">
          <mxGeometry x="506.3299999999999" y="163.75" width="340" height="20" as="geometry"/>
        </mxCell>
        <mxCell id="5_B36KdzPEvoYmhDLYBK-87" value="" style="shape=curlyBracket;whiteSpace=wrap;html=1;rounded=1;" parent="Fl71wRBjlF6iR6LxpcYb-52" vertex="1">
          <mxGeometry x="476.3299999999999" y="323.75" width="20" height="105" as="geometry"/>
        </mxCell>
        <mxCell id="5_B36KdzPEvoYmhDLYBK-88" value="&lt;font style=&quot;font-size: 16px;&quot;&gt;就业经历&lt;/font&gt;" style="text;html=1;strokeColor=none;fillColor=none;align=left;verticalAlign=middle;whiteSpace=wrap;rounded=0;fontSize=16;" parent="Fl71wRBjlF6iR6LxpcYb-52" vertex="1">
          <mxGeometry x="506.3299999999999" y="316.25" width="360" height="20" as="geometry"/>
        </mxCell>
        <mxCell id="5_B36KdzPEvoYmhDLYBK-89" value="&lt;font style=&quot;font-size: 16px;&quot;&gt;离职原因&lt;/font&gt;" style="text;html=1;strokeColor=none;fillColor=none;align=left;verticalAlign=middle;whiteSpace=wrap;rounded=0;fontSize=16;" parent="Fl71wRBjlF6iR6LxpcYb-52" vertex="1">
          <mxGeometry x="506.3299999999999" y="361.25" width="330" height="20" as="geometry"/>
        </mxCell>
        <mxCell id="5_B36KdzPEvoYmhDLYBK-90" value="&lt;font style=&quot;font-size: 16px;&quot;&gt;职业规划（形象好是否想转业务岗）&lt;/font&gt;" style="text;html=1;strokeColor=none;fillColor=none;align=left;verticalAlign=middle;whiteSpace=wrap;rounded=0;fontSize=16;" parent="Fl71wRBjlF6iR6LxpcYb-52" vertex="1">
          <mxGeometry x="506.3299999999999" y="411.25" width="280" height="20" as="geometry"/>
        </mxCell>
        <mxCell id="5_B36KdzPEvoYmhDLYBK-91" value="&lt;font style=&quot;font-size: 16px;&quot;&gt;表达能力OK且没有过重地方口音&lt;/font&gt;" style="text;html=1;strokeColor=none;fillColor=none;align=left;verticalAlign=middle;whiteSpace=wrap;rounded=0;fontSize=16;" parent="Fl71wRBjlF6iR6LxpcYb-52" vertex="1">
          <mxGeometry x="506.3299999999999" y="208.75" width="260" height="20" as="geometry"/>
        </mxCell>
        <mxCell id="5_B36KdzPEvoYmhDLYBK-92" value="" style="shape=curlyBracket;whiteSpace=wrap;html=1;rounded=1;align=left;rotation=-180;fontSize=16;" parent="Fl71wRBjlF6iR6LxpcYb-52" vertex="1">
          <mxGeometry x="906.3300000000004" y="46.25" width="20" height="45" as="geometry"/>
        </mxCell>
        <mxCell id="5_B36KdzPEvoYmhDLYBK-93" value="要求相对业务岗可稍低&lt;br style=&quot;font-size: 16px&quot;&gt;拍照内部讨论" style="text;html=1;strokeColor=none;fillColor=none;align=left;verticalAlign=middle;whiteSpace=wrap;rounded=0;fontSize=16;" parent="Fl71wRBjlF6iR6LxpcYb-52" vertex="1">
          <mxGeometry x="939.8300000000004" y="58.75" width="166.5" height="20" as="geometry"/>
        </mxCell>
        <mxCell id="5_B36KdzPEvoYmhDLYBK-106" value="&lt;font style=&quot;font-size: 16px;&quot;&gt;年龄：20~40&lt;/font&gt;" style="text;html=1;strokeColor=none;fillColor=none;align=left;verticalAlign=middle;whiteSpace=wrap;rounded=0;fontSize=16;" parent="Fl71wRBjlF6iR6LxpcYb-52" vertex="1">
          <mxGeometry x="506.3299999999999" y="125" width="270.5" height="20" as="geometry"/>
        </mxCell>
        <mxCell id="Fl71wRBjlF6iR6LxpcYb-50" value="&lt;h1&gt;&lt;/h1&gt;&lt;h1&gt;工作内容&lt;/h1&gt;日常按照排班表正常上班，上班时配合业务岗做好店内服务待客工作，如遇到或接报店内突发紧急情况时须及时主动处理，并按规定向上级汇报。&lt;br&gt;&lt;p&gt;&lt;/p&gt;" style="text;html=1;strokeColor=none;fillColor=none;spacing=5;spacingTop=-20;whiteSpace=wrap;overflow=hidden;rounded=0;" vertex="1" parent="Fl71wRBjlF6iR6LxpcYb-52">
          <mxGeometry y="418.75" width="230" height="130" as="geometry"/>
        </mxCell>
        <mxCell id="Fl71wRBjlF6iR6LxpcYb-53" value="&lt;h1&gt;招聘思路&lt;/h1&gt;&lt;p&gt;西厨拟招聘5人，负责酒吧西餐、小食出品以及员工餐，须能控制在1~2胜任厨房工作，并提供厨房布置以及炊具采购的指导性意见。&lt;/p&gt;" style="text;html=1;strokeColor=none;fillColor=none;spacing=5;spacingTop=-20;whiteSpace=wrap;overflow=hidden;rounded=0;" vertex="1" parent="1">
          <mxGeometry x="190" y="1800" width="190" height="150" as="geometry"/>
        </mxCell>
        <mxCell id="Fl71wRBjlF6iR6LxpcYb-54" value="&lt;h1&gt;薪资待遇&lt;/h1&gt;&lt;p&gt;&lt;/p&gt;&lt;ul&gt;&lt;li&gt;5~6k&lt;/li&gt;&lt;/ul&gt;&lt;p&gt;&lt;/p&gt;" style="text;html=1;strokeColor=none;fillColor=none;spacing=5;spacingTop=-20;whiteSpace=wrap;overflow=hidden;rounded=0;" vertex="1" parent="1">
          <mxGeometry x="190" y="1961.2500000000002" width="190" height="122.5" as="geometry"/>
        </mxCell>
        <mxCell id="Fl71wRBjlF6iR6LxpcYb-55" value="&lt;h1&gt;上班时间&lt;/h1&gt;&lt;p&gt;&lt;/p&gt;&lt;ul&gt;&lt;li&gt;根据排班表上班，酒吧营业时间是上午10点至次日凌晨2点，员工天上班时间为8个小时&lt;/li&gt;&lt;li&gt;上六休一&lt;/li&gt;&lt;li&gt;法定假期不休，年底集中休假&lt;/li&gt;&lt;/ul&gt;&lt;p&gt;&lt;/p&gt;" style="text;html=1;strokeColor=none;fillColor=none;spacing=5;spacingTop=-20;whiteSpace=wrap;overflow=hidden;rounded=0;" vertex="1" parent="1">
          <mxGeometry x="190" y="2083.75" width="230" height="158.75" as="geometry"/>
        </mxCell>
        <mxCell id="Fl71wRBjlF6iR6LxpcYb-56" value="" style="shape=curlyBracket;whiteSpace=wrap;html=1;rounded=1;rotation=-180;" vertex="1" parent="1">
          <mxGeometry x="460" y="1835" width="20" height="442.5" as="geometry"/>
        </mxCell>
        <mxCell id="Fl71wRBjlF6iR6LxpcYb-57" value="&lt;h1&gt;工作内容&lt;/h1&gt;&lt;ul&gt;&lt;li&gt;每日根据点餐人数做工作餐&lt;/li&gt;&lt;li&gt;食品采购（或向负责采购的同时提供食材采购单）&lt;/li&gt;&lt;li&gt;负责酒吧西餐和小食等出品&lt;/li&gt;&lt;/ul&gt;&lt;p&gt;&lt;/p&gt;" style="text;html=1;strokeColor=none;fillColor=none;spacing=5;spacingTop=-20;whiteSpace=wrap;overflow=hidden;rounded=0;" vertex="1" parent="1">
          <mxGeometry x="180" y="2230" width="230" height="170" as="geometry"/>
        </mxCell>
        <mxCell id="Fl71wRBjlF6iR6LxpcYb-75" value="&lt;h1&gt;招聘思路&lt;/h1&gt;&lt;p&gt;保洁拟招聘3人，负责酒吧、公共宿舍、员工宿舍、办公室、工作室卫生打扫，以及员工工作服换洗烘干和公共宿舍的布草换洗工作。优先招聘家住附近的阿姨，要求身体健康、吃苦耐劳、服从管理。&lt;/p&gt;" style="text;html=1;strokeColor=none;fillColor=none;spacing=5;spacingTop=-20;whiteSpace=wrap;overflow=hidden;rounded=0;" vertex="1" parent="1">
          <mxGeometry x="1200" y="1800" width="190" height="150" as="geometry"/>
        </mxCell>
        <mxCell id="Fl71wRBjlF6iR6LxpcYb-76" value="&lt;h1&gt;薪资待遇&lt;/h1&gt;&lt;p&gt;&lt;/p&gt;&lt;ul&gt;&lt;li&gt;5~6k&lt;/li&gt;&lt;/ul&gt;&lt;p&gt;&lt;/p&gt;" style="text;html=1;strokeColor=none;fillColor=none;spacing=5;spacingTop=-20;whiteSpace=wrap;overflow=hidden;rounded=0;" vertex="1" parent="1">
          <mxGeometry x="1200" y="1961.2500000000002" width="190" height="122.5" as="geometry"/>
        </mxCell>
        <mxCell id="Fl71wRBjlF6iR6LxpcYb-77" value="&lt;h1&gt;上班时间&lt;/h1&gt;&lt;p&gt;&lt;/p&gt;&lt;ul&gt;&lt;li&gt;根据排班表上班，酒吧营业时间是上午10点至次日凌晨2点，员工天上班时间为8个小时&lt;/li&gt;&lt;li&gt;上六休一&lt;/li&gt;&lt;li&gt;法定假期不休，年底集中休假&lt;/li&gt;&lt;/ul&gt;&lt;p&gt;&lt;/p&gt;" style="text;html=1;strokeColor=none;fillColor=none;spacing=5;spacingTop=-20;whiteSpace=wrap;overflow=hidden;rounded=0;" vertex="1" parent="1">
          <mxGeometry x="1200" y="2083.75" width="230" height="158.75" as="geometry"/>
        </mxCell>
        <mxCell id="Fl71wRBjlF6iR6LxpcYb-78" value="" style="shape=curlyBracket;whiteSpace=wrap;html=1;rounded=1;rotation=-180;" vertex="1" parent="1">
          <mxGeometry x="1470" y="1835" width="20" height="442.5" as="geometry"/>
        </mxCell>
        <mxCell id="Fl71wRBjlF6iR6LxpcYb-79" value="&lt;h1&gt;工作内容&lt;/h1&gt;&lt;ul&gt;&lt;li&gt;每日根据点餐人数做工作餐&lt;/li&gt;&lt;li&gt;食品采购（或向负责采购的同时提供食材采购单）&lt;/li&gt;&lt;li&gt;负责酒吧西餐和小食等出品&lt;/li&gt;&lt;/ul&gt;&lt;p&gt;&lt;/p&gt;" style="text;html=1;strokeColor=none;fillColor=none;spacing=5;spacingTop=-20;whiteSpace=wrap;overflow=hidden;rounded=0;" vertex="1" parent="1">
          <mxGeometry x="1190" y="2230" width="230" height="170" as="geometry"/>
        </mxCell>
        <mxCell id="5_B36KdzPEvoYmhDLYBK-235" value="" style="group" parent="1" vertex="1" connectable="0" treatAsSingle="0">
          <mxGeometry x="520" y="1850" width="560" height="381.25" as="geometry"/>
        </mxCell>
        <mxCell id="5_B36KdzPEvoYmhDLYBK-183" value="" style="group" parent="5_B36KdzPEvoYmhDLYBK-235" vertex="1" connectable="0" treatAsSingle="0">
          <mxGeometry width="560" height="381.25" as="geometry"/>
        </mxCell>
        <mxCell id="5_B36KdzPEvoYmhDLYBK-99" value="&lt;span style=&quot;font-size: 16px;&quot;&gt;常见西餐和小食&lt;/span&gt;" style="text;html=1;strokeColor=none;fillColor=none;align=left;verticalAlign=middle;whiteSpace=wrap;rounded=0;fontSize=16;" parent="5_B36KdzPEvoYmhDLYBK-183" vertex="1">
          <mxGeometry x="203.5" y="52.5" width="330" height="20" as="geometry"/>
        </mxCell>
        <mxCell id="5_B36KdzPEvoYmhDLYBK-102" value="&lt;font style=&quot;font-size: 16px;&quot;&gt;离职原因&lt;/font&gt;" style="text;html=1;strokeColor=none;fillColor=none;align=left;verticalAlign=middle;whiteSpace=wrap;rounded=0;fontSize=16;" parent="5_B36KdzPEvoYmhDLYBK-183" vertex="1">
          <mxGeometry x="200" y="311.25" width="150" height="20" as="geometry"/>
        </mxCell>
        <mxCell id="5_B36KdzPEvoYmhDLYBK-107" value="&lt;font style=&quot;font-size: 16px;&quot;&gt;就业经历&lt;/font&gt;" style="text;html=1;strokeColor=none;fillColor=none;align=left;verticalAlign=middle;whiteSpace=wrap;rounded=0;fontSize=16;" parent="5_B36KdzPEvoYmhDLYBK-183" vertex="1">
          <mxGeometry x="200" y="263.75" width="170" height="20" as="geometry"/>
        </mxCell>
        <mxCell id="UDFGTyTU-gH4lqWIlmIU-4" value="" style="group" parent="5_B36KdzPEvoYmhDLYBK-183" vertex="1" connectable="0" treatAsSingle="0">
          <mxGeometry width="433.5" height="381.25" as="geometry"/>
        </mxCell>
        <mxCell id="5_B36KdzPEvoYmhDLYBK-94" value="&lt;font style=&quot;font-size: 30px&quot;&gt;&lt;b&gt;西餐厨师&lt;/b&gt;&lt;/font&gt;" style="text;html=1;strokeColor=none;fillColor=none;align=center;verticalAlign=middle;whiteSpace=wrap;rounded=0;" parent="UDFGTyTU-gH4lqWIlmIU-4" vertex="1">
          <mxGeometry y="143.75" width="40" height="120" as="geometry"/>
        </mxCell>
        <mxCell id="5_B36KdzPEvoYmhDLYBK-95" value="" style="shape=curlyBracket;whiteSpace=wrap;html=1;rounded=1;" parent="UDFGTyTU-gH4lqWIlmIU-4" vertex="1">
          <mxGeometry x="50" y="78.75" width="20" height="250" as="geometry"/>
        </mxCell>
        <mxCell id="5_B36KdzPEvoYmhDLYBK-96" value="&lt;font style=&quot;font-size: 16px&quot;&gt;要求&lt;/font&gt;" style="rounded=1;whiteSpace=wrap;html=1;" parent="UDFGTyTU-gH4lqWIlmIU-4" vertex="1">
          <mxGeometry x="80" y="58.75" width="70" height="50" as="geometry"/>
        </mxCell>
        <mxCell id="5_B36KdzPEvoYmhDLYBK-97" value="&lt;font style=&quot;font-size: 16px&quot;&gt;了解&lt;/font&gt;" style="rounded=1;whiteSpace=wrap;html=1;" parent="UDFGTyTU-gH4lqWIlmIU-4" vertex="1">
          <mxGeometry x="80" y="298.75" width="70" height="50" as="geometry"/>
        </mxCell>
        <mxCell id="5_B36KdzPEvoYmhDLYBK-98" value="" style="shape=curlyBracket;whiteSpace=wrap;html=1;rounded=1;" parent="UDFGTyTU-gH4lqWIlmIU-4" vertex="1">
          <mxGeometry x="170" y="10" width="20" height="147.5" as="geometry"/>
        </mxCell>
        <mxCell id="5_B36KdzPEvoYmhDLYBK-100" value="&lt;font style=&quot;font-size: 16px;&quot;&gt;点餐制员工餐&lt;/font&gt;" style="text;html=1;strokeColor=none;fillColor=none;align=left;verticalAlign=middle;whiteSpace=wrap;rounded=0;fontSize=16;" parent="UDFGTyTU-gH4lqWIlmIU-4" vertex="1">
          <mxGeometry x="203.5" y="102.5" width="230" height="20" as="geometry"/>
        </mxCell>
        <mxCell id="5_B36KdzPEvoYmhDLYBK-101" value="" style="shape=curlyBracket;whiteSpace=wrap;html=1;rounded=1;" parent="UDFGTyTU-gH4lqWIlmIU-4" vertex="1">
          <mxGeometry x="170" y="273.75" width="20" height="105" as="geometry"/>
        </mxCell>
        <mxCell id="5_B36KdzPEvoYmhDLYBK-103" value="&lt;font style=&quot;font-size: 16px;&quot;&gt;职业规划&lt;/font&gt;" style="text;html=1;strokeColor=none;fillColor=none;align=left;verticalAlign=middle;whiteSpace=wrap;rounded=0;fontSize=16;" parent="UDFGTyTU-gH4lqWIlmIU-4" vertex="1">
          <mxGeometry x="200" y="361.25" width="230" height="20" as="geometry"/>
        </mxCell>
        <mxCell id="5_B36KdzPEvoYmhDLYBK-104" value="&lt;span style=&quot;font-size: 16px;&quot;&gt;1~2人负责的小厨房&lt;/span&gt;" style="text;html=1;strokeColor=none;fillColor=none;align=left;verticalAlign=middle;whiteSpace=wrap;rounded=0;fontSize=16;" parent="UDFGTyTU-gH4lqWIlmIU-4" vertex="1">
          <mxGeometry x="203.5" y="147.5" width="230" height="20" as="geometry"/>
        </mxCell>
        <mxCell id="5_B36KdzPEvoYmhDLYBK-105" value="&lt;font style=&quot;font-size: 16px;&quot;&gt;西餐厨师1年以上经验&lt;/font&gt;" style="text;html=1;strokeColor=none;fillColor=none;align=left;verticalAlign=middle;whiteSpace=wrap;rounded=0;fontSize=16;" parent="UDFGTyTU-gH4lqWIlmIU-4" vertex="1">
          <mxGeometry x="203.5" width="157" height="20" as="geometry"/>
        </mxCell>
        <mxCell id="5_B36KdzPEvoYmhDLYBK-108" value="&lt;b&gt;&lt;font style=&quot;font-size: 30px&quot;&gt;保洁&lt;/font&gt;&lt;/b&gt;" style="text;html=1;strokeColor=none;fillColor=none;align=center;verticalAlign=middle;whiteSpace=wrap;rounded=0;" parent="1" vertex="1">
          <mxGeometry x="1510" y="1996.25" width="40" height="120" as="geometry"/>
        </mxCell>
        <mxCell id="5_B36KdzPEvoYmhDLYBK-109" value="" style="shape=curlyBracket;whiteSpace=wrap;html=1;rounded=1;" parent="1" vertex="1">
          <mxGeometry x="1565" y="1931.25" width="20" height="250" as="geometry"/>
        </mxCell>
        <mxCell id="5_B36KdzPEvoYmhDLYBK-110" value="&lt;font style=&quot;font-size: 16px&quot;&gt;要求&lt;/font&gt;" style="rounded=1;whiteSpace=wrap;html=1;" parent="1" vertex="1">
          <mxGeometry x="1595" y="1911.25" width="70" height="50" as="geometry"/>
        </mxCell>
        <mxCell id="5_B36KdzPEvoYmhDLYBK-111" value="&lt;font style=&quot;font-size: 16px&quot;&gt;了解&lt;/font&gt;" style="rounded=1;whiteSpace=wrap;html=1;" parent="1" vertex="1">
          <mxGeometry x="1595" y="2151.25" width="70" height="50" as="geometry"/>
        </mxCell>
        <mxCell id="5_B36KdzPEvoYmhDLYBK-112" value="" style="shape=curlyBracket;whiteSpace=wrap;html=1;rounded=1;" parent="1" vertex="1">
          <mxGeometry x="1683" y="1871.25" width="18.5" height="130" as="geometry"/>
        </mxCell>
        <mxCell id="5_B36KdzPEvoYmhDLYBK-113" value="&lt;span style=&quot;font-size: 16px;&quot;&gt;夜班：&lt;/span&gt;" style="text;html=1;strokeColor=none;fillColor=none;align=left;verticalAlign=middle;whiteSpace=wrap;rounded=0;fontSize=16;" parent="1" vertex="1">
          <mxGeometry x="1718.5" y="1926.25" width="330" height="20" as="geometry"/>
        </mxCell>
        <mxCell id="5_B36KdzPEvoYmhDLYBK-114" value="&lt;font style=&quot;font-size: 16px;&quot;&gt;身体健康，服从管理，勤劳肯干&lt;/font&gt;" style="text;html=1;strokeColor=none;fillColor=none;align=left;verticalAlign=middle;whiteSpace=wrap;rounded=0;fontSize=16;" parent="1" vertex="1">
          <mxGeometry x="1718.5" y="1992.5" width="230" height="20" as="geometry"/>
        </mxCell>
        <mxCell id="5_B36KdzPEvoYmhDLYBK-115" value="" style="shape=curlyBracket;whiteSpace=wrap;html=1;rounded=1;" parent="1" vertex="1">
          <mxGeometry x="1685" y="2138.75" width="20" height="70" as="geometry"/>
        </mxCell>
        <mxCell id="5_B36KdzPEvoYmhDLYBK-116" value="&lt;font style=&quot;font-size: 16px;&quot;&gt;离职原因&lt;/font&gt;" style="text;html=1;strokeColor=none;fillColor=none;align=left;verticalAlign=middle;whiteSpace=wrap;rounded=0;fontSize=16;" parent="1" vertex="1">
          <mxGeometry x="1718.5" y="2198.75" width="330" height="20" as="geometry"/>
        </mxCell>
        <mxCell id="5_B36KdzPEvoYmhDLYBK-119" value="&lt;font style=&quot;font-size: 16px;&quot;&gt;白班：&lt;/font&gt;" style="text;html=1;strokeColor=none;fillColor=none;align=left;verticalAlign=middle;whiteSpace=wrap;rounded=0;fontSize=16;" parent="1" vertex="1">
          <mxGeometry x="1718.5" y="1862.5" width="75" height="20" as="geometry"/>
        </mxCell>
        <mxCell id="5_B36KdzPEvoYmhDLYBK-136" value="&lt;font style=&quot;font-size: 16px;&quot;&gt;酒吧&lt;/font&gt;" style="text;html=1;strokeColor=none;fillColor=none;align=left;verticalAlign=middle;whiteSpace=wrap;rounded=0;fontSize=16;" parent="1" vertex="1">
          <mxGeometry x="1764.15" y="1862.5" width="33.5" height="20" as="geometry"/>
        </mxCell>
        <mxCell id="5_B36KdzPEvoYmhDLYBK-138" value="&lt;span style=&quot;font-size: 16px;&quot;&gt;工作室&lt;/span&gt;" style="text;html=1;strokeColor=none;fillColor=none;align=left;verticalAlign=middle;whiteSpace=wrap;rounded=0;fontSize=16;" parent="1" vertex="1">
          <mxGeometry x="1989.5" y="1860" width="52" height="20" as="geometry"/>
        </mxCell>
        <mxCell id="5_B36KdzPEvoYmhDLYBK-120" value="&lt;font style=&quot;font-size: 16px;&quot;&gt;就业经历&lt;/font&gt;" style="text;html=1;strokeColor=none;fillColor=none;align=left;verticalAlign=middle;whiteSpace=wrap;rounded=0;fontSize=16;" parent="1" vertex="1">
          <mxGeometry x="1716.5" y="2157.5" width="360" height="20" as="geometry"/>
        </mxCell>
        <mxCell id="5_B36KdzPEvoYmhDLYBK-144" value="" style="edgeStyle=orthogonalEdgeStyle;rounded=0;orthogonalLoop=1;jettySize=auto;html=1;fontSize=16;" parent="1" edge="1">
          <mxGeometry relative="1" as="geometry">
            <mxPoint x="2041.5" y="1869.9" as="sourcePoint"/>
            <mxPoint x="2061.5" y="1869.9" as="targetPoint"/>
          </mxGeometry>
        </mxCell>
        <mxCell id="5_B36KdzPEvoYmhDLYBK-145" value="&lt;span style=&quot;font-size: 16px;&quot;&gt;办公室&lt;/span&gt;" style="text;html=1;strokeColor=none;fillColor=none;align=left;verticalAlign=middle;whiteSpace=wrap;rounded=0;fontSize=16;" parent="1" vertex="1">
          <mxGeometry x="2060" y="1860" width="63.5" height="20" as="geometry"/>
        </mxCell>
        <mxCell id="5_B36KdzPEvoYmhDLYBK-146" value="" style="edgeStyle=orthogonalEdgeStyle;rounded=0;orthogonalLoop=1;jettySize=auto;html=1;fontSize=16;" parent="1" edge="1">
          <mxGeometry relative="1" as="geometry">
            <mxPoint x="2110" y="1869.8000000000002" as="sourcePoint"/>
            <mxPoint x="2130" y="1869.8000000000002" as="targetPoint"/>
          </mxGeometry>
        </mxCell>
        <mxCell id="5_B36KdzPEvoYmhDLYBK-147" value="&lt;span style=&quot;font-size: 16px;&quot;&gt;员工宿舍&lt;/span&gt;" style="text;html=1;strokeColor=none;fillColor=none;align=left;verticalAlign=middle;whiteSpace=wrap;rounded=0;fontSize=16;" parent="1" vertex="1">
          <mxGeometry x="2130.5" y="1860" width="74" height="20" as="geometry"/>
        </mxCell>
        <mxCell id="5_B36KdzPEvoYmhDLYBK-148" value="" style="shape=curlyBracket;whiteSpace=wrap;html=1;rounded=1;align=left;fontSize=16;" parent="1" vertex="1">
          <mxGeometry x="2210" y="1850" width="10" height="40" as="geometry"/>
        </mxCell>
        <mxCell id="5_B36KdzPEvoYmhDLYBK-151" value="工作服换洗" style="text;html=1;strokeColor=none;fillColor=none;align=left;verticalAlign=middle;whiteSpace=wrap;rounded=0;fontSize=16;" parent="1" vertex="1">
          <mxGeometry x="2220" y="1875" width="84.5" height="20" as="geometry"/>
        </mxCell>
        <mxCell id="5_B36KdzPEvoYmhDLYBK-152" value="&lt;font style=&quot;font-size: 16px;&quot;&gt;酒吧&lt;/font&gt;" style="text;html=1;strokeColor=none;fillColor=none;align=left;verticalAlign=middle;whiteSpace=wrap;rounded=0;fontSize=16;" parent="1" vertex="1">
          <mxGeometry x="1765.67" y="1926.25" width="35" height="20" as="geometry"/>
        </mxCell>
        <mxCell id="Fl71wRBjlF6iR6LxpcYb-88" value="&lt;font style=&quot;font-size: 16px;&quot;&gt;酒吧&lt;/font&gt;" style="text;html=1;strokeColor=none;fillColor=none;align=left;verticalAlign=middle;whiteSpace=wrap;rounded=0;fontSize=16;" vertex="1" parent="1">
          <mxGeometry x="1658.5" y="1926.25" width="35" height="20" as="geometry"/>
        </mxCell>
        <mxCell id="5_B36KdzPEvoYmhDLYBK-153" value="&lt;font style=&quot;font-size: 16px;&quot;&gt;家庭地址&lt;/font&gt;" style="text;html=1;strokeColor=none;fillColor=none;align=left;verticalAlign=middle;whiteSpace=wrap;rounded=0;fontSize=16;" parent="1" vertex="1">
          <mxGeometry x="1718.5" y="2122.5" width="360" height="20" as="geometry"/>
        </mxCell>
        <mxCell id="5_B36KdzPEvoYmhDLYBK-150" value="&lt;span style=&quot;font-size: 16px;&quot;&gt;宿舍卫生&lt;/span&gt;" style="text;html=1;strokeColor=none;fillColor=none;align=left;verticalAlign=middle;whiteSpace=wrap;rounded=0;fontSize=16;" parent="1" vertex="1">
          <mxGeometry x="2220" y="1840" width="70" height="20" as="geometry"/>
        </mxCell>
        <mxCell id="Fl71wRBjlF6iR6LxpcYb-80" value="&lt;span style=&quot;font-size: 16px&quot;&gt;公共宿舍&lt;/span&gt;" style="text;html=1;strokeColor=none;fillColor=none;align=left;verticalAlign=middle;whiteSpace=wrap;rounded=0;fontSize=16;" vertex="1" parent="1">
          <mxGeometry x="1817.5" y="1862.5" width="74" height="20" as="geometry"/>
        </mxCell>
        <mxCell id="Fl71wRBjlF6iR6LxpcYb-81" value="" style="shape=curlyBracket;whiteSpace=wrap;html=1;rounded=1;align=left;fontSize=16;" vertex="1" parent="1">
          <mxGeometry x="1891.5" y="1855" width="10" height="40" as="geometry"/>
        </mxCell>
        <mxCell id="Fl71wRBjlF6iR6LxpcYb-82" value="&lt;span style=&quot;font-size: 16px&quot;&gt;布草换洗&lt;/span&gt;" style="text;html=1;strokeColor=none;fillColor=none;align=left;verticalAlign=middle;whiteSpace=wrap;rounded=0;fontSize=16;" vertex="1" parent="1">
          <mxGeometry x="1901.5" y="1882.5" width="72.5" height="20" as="geometry"/>
        </mxCell>
        <mxCell id="Fl71wRBjlF6iR6LxpcYb-83" value="&lt;span style=&quot;font-size: 16px;&quot;&gt;宿舍卫生&lt;/span&gt;" style="text;html=1;strokeColor=none;fillColor=none;align=left;verticalAlign=middle;whiteSpace=wrap;rounded=0;fontSize=16;" vertex="1" parent="1">
          <mxGeometry x="1901.5" y="1842.5" width="70" height="20" as="geometry"/>
        </mxCell>
        <mxCell id="Fl71wRBjlF6iR6LxpcYb-84" value="" style="edgeStyle=orthogonalEdgeStyle;rounded=0;orthogonalLoop=1;jettySize=auto;html=1;fontSize=16;" edge="1" parent="1" source="5_B36KdzPEvoYmhDLYBK-136">
          <mxGeometry relative="1" as="geometry">
            <mxPoint x="1817.65" y="1872.4999999999995" as="targetPoint"/>
            <mxPoint x="1797.65" y="1872.1470588235293" as="sourcePoint"/>
            <Array as="points">
              <mxPoint x="1817.15" y="1872.5"/>
            </Array>
          </mxGeometry>
        </mxCell>
        <mxCell id="Fl71wRBjlF6iR6LxpcYb-87" value="" style="edgeStyle=orthogonalEdgeStyle;rounded=0;orthogonalLoop=1;jettySize=auto;html=1;fontSize=16;" edge="1" parent="1">
          <mxGeometry relative="1" as="geometry">
            <mxPoint x="1991.531764705882" y="1869.9070588235293" as="targetPoint"/>
            <mxPoint x="1971.62" y="1869.9070588235293" as="sourcePoint"/>
            <Array as="points">
              <mxPoint x="1973.7" y="1869.83"/>
              <mxPoint x="1973.7" y="1869.83"/>
            </Array>
          </mxGeometry>
        </mxCell>
      </root>
    </mxGraphModel>
  </diagram>
</mxfile>
